<mxfile host="65bd71144e">
    <diagram id="e0k41Mdjl91KXGwcBldV" name="Page-1">
        <mxGraphModel dx="1419" dy="598" grid="1" gridSize="10" guides="1" tooltips="1" connect="1" arrows="1" fold="1" page="1" pageScale="1" pageWidth="5000" pageHeight="5000" math="0" shadow="0">
            <root>
                <mxCell id="0"/>
                <mxCell id="1" parent="0"/>
                <mxCell id="2" value="v" style="rounded=1;whiteSpace=wrap;html=1;" vertex="1" parent="1">
                    <mxGeometry x="920" y="100" width="520" height="360" as="geometry"/>
                </mxCell>
                <mxCell id="3" value="&lt;font style=&quot;font-size: 24px&quot;&gt;main&lt;/font&gt;" style="text;html=1;strokeColor=none;fillColor=none;align=center;verticalAlign=middle;whiteSpace=wrap;rounded=0;" vertex="1" parent="1">
                    <mxGeometry x="950" y="130" width="70" height="50" as="geometry"/>
                </mxCell>
                <mxCell id="4" value="&lt;font style=&quot;font-size: 18px&quot;&gt;node_exporter&lt;/font&gt;" style="rounded=1;whiteSpace=wrap;html=1;fontSize=24;" vertex="1" parent="1">
                    <mxGeometry x="940" y="370" width="160" height="50" as="geometry"/>
                </mxCell>
                <mxCell id="5" value="traQ" style="rounded=1;whiteSpace=wrap;html=1;fontSize=18;" vertex="1" parent="1">
                    <mxGeometry x="1170" y="245" width="220" height="70" as="geometry"/>
                </mxCell>
                <mxCell id="37" style="edgeStyle=none;html=1;fontSize=18;" edge="1" parent="1" source="14" target="5">
                    <mxGeometry relative="1" as="geometry"/>
                </mxCell>
                <mxCell id="14" value="" style="rounded=1;whiteSpace=wrap;html=1;fontSize=18;" vertex="1" parent="1">
                    <mxGeometry x="980" y="249.99" width="120" height="60" as="geometry"/>
                </mxCell>
                <mxCell id="15" value="" style="rounded=1;whiteSpace=wrap;html=1;" vertex="1" parent="1">
                    <mxGeometry x="100" y="350" width="520" height="360" as="geometry"/>
                </mxCell>
                <mxCell id="16" value="&lt;span style=&quot;font-size: 24px&quot;&gt;monitor&lt;/span&gt;" style="text;html=1;strokeColor=none;fillColor=none;align=center;verticalAlign=middle;whiteSpace=wrap;rounded=0;" vertex="1" parent="1">
                    <mxGeometry x="130" y="380" width="70" height="50" as="geometry"/>
                </mxCell>
                <mxCell id="17" value="&lt;font style=&quot;font-size: 18px&quot;&gt;node_exporter&lt;/font&gt;" style="rounded=1;whiteSpace=wrap;html=1;fontSize=24;" vertex="1" parent="1">
                    <mxGeometry x="120" y="620" width="160" height="50" as="geometry"/>
                </mxCell>
                <mxCell id="41" style="edgeStyle=none;html=1;fontSize=18;" edge="1" parent="1" source="18" target="20">
                    <mxGeometry relative="1" as="geometry"/>
                </mxCell>
                <mxCell id="18" value="Grafana" style="rounded=1;whiteSpace=wrap;html=1;fontSize=18;" vertex="1" parent="1">
                    <mxGeometry x="350" y="590" width="220" height="70" as="geometry"/>
                </mxCell>
                <mxCell id="30" style="edgeStyle=none;html=1;entryX=0;entryY=0.5;entryDx=0;entryDy=0;fontSize=18;exitX=1;exitY=0.5;exitDx=0;exitDy=0;" edge="1" parent="1" source="19" target="18">
                    <mxGeometry relative="1" as="geometry"/>
                </mxCell>
                <mxCell id="19" value="" style="rounded=1;whiteSpace=wrap;html=1;fontSize=18;" vertex="1" parent="1">
                    <mxGeometry x="160" y="495" width="120" height="70" as="geometry"/>
                </mxCell>
                <mxCell id="28" style="edgeStyle=none;html=1;entryX=0.017;entryY=0.953;entryDx=0;entryDy=0;fontSize=18;exitX=1;exitY=0.5;exitDx=0;exitDy=0;entryPerimeter=0;" edge="1" parent="1" source="20" target="2">
                    <mxGeometry relative="1" as="geometry"/>
                </mxCell>
                <mxCell id="20" value="Prometheus" style="rounded=1;whiteSpace=wrap;html=1;fontSize=18;" vertex="1" parent="1">
                    <mxGeometry x="350" y="452.5" width="220" height="70" as="geometry"/>
                </mxCell>
                <mxCell id="21" value="" style="rounded=1;whiteSpace=wrap;html=1;" vertex="1" parent="1">
                    <mxGeometry x="920" y="590" width="520" height="360" as="geometry"/>
                </mxCell>
                <mxCell id="22" value="&lt;span style=&quot;font-size: 24px&quot;&gt;webrtc&lt;/span&gt;" style="text;html=1;strokeColor=none;fillColor=none;align=center;verticalAlign=middle;whiteSpace=wrap;rounded=0;" vertex="1" parent="1">
                    <mxGeometry x="950" y="620" width="70" height="50" as="geometry"/>
                </mxCell>
                <mxCell id="23" value="&lt;font style=&quot;font-size: 18px&quot;&gt;node_exporter&lt;/font&gt;" style="rounded=1;whiteSpace=wrap;html=1;fontSize=24;" vertex="1" parent="1">
                    <mxGeometry x="940" y="860" width="160" height="50" as="geometry"/>
                </mxCell>
                <mxCell id="39" style="edgeStyle=none;html=1;entryX=0;entryY=0.5;entryDx=0;entryDy=0;fontSize=18;exitX=1;exitY=0.5;exitDx=0;exitDy=0;" edge="1" parent="1" source="24" target="26">
                    <mxGeometry relative="1" as="geometry"/>
                </mxCell>
                <mxCell id="40" style="edgeStyle=none;html=1;entryX=0.5;entryY=0;entryDx=0;entryDy=0;fontSize=18;exitX=0.5;exitY=1;exitDx=0;exitDy=0;" edge="1" parent="1" source="26" target="27">
                    <mxGeometry relative="1" as="geometry"/>
                </mxCell>
                <mxCell id="24" value="Caddyl4" style="rounded=1;whiteSpace=wrap;html=1;fontSize=18;" vertex="1" parent="1">
                    <mxGeometry x="970" y="735" width="160" height="70" as="geometry"/>
                </mxCell>
                <mxCell id="26" value="livekit" style="rounded=1;whiteSpace=wrap;html=1;fontSize=18;" vertex="1" parent="1">
                    <mxGeometry x="1170" y="640" width="220" height="70" as="geometry"/>
                </mxCell>
                <mxCell id="27" value="Redis" style="rounded=1;whiteSpace=wrap;html=1;fontSize=18;" vertex="1" parent="1">
                    <mxGeometry x="1170" y="820" width="220" height="70" as="geometry"/>
                </mxCell>
                <mxCell id="29" style="edgeStyle=none;html=1;entryX=0.001;entryY=0.137;entryDx=0;entryDy=0;entryPerimeter=0;fontSize=18;exitX=1;exitY=0.5;exitDx=0;exitDy=0;" edge="1" parent="1" source="20" target="21">
                    <mxGeometry relative="1" as="geometry"/>
                </mxCell>
                <mxCell id="34" value="" style="endArrow=classic;html=1;fontSize=18;entryX=0;entryY=0.5;entryDx=0;entryDy=0;" edge="1" parent="1" target="19">
                    <mxGeometry width="50" height="50" relative="1" as="geometry">
                        <mxPoint x="10" y="530" as="sourcePoint"/>
                        <mxPoint x="690" y="540" as="targetPoint"/>
                    </mxGeometry>
                </mxCell>
                <mxCell id="36" value="" style="endArrow=classic;html=1;fontSize=18;entryX=0;entryY=0.5;entryDx=0;entryDy=0;" edge="1" parent="1" target="14">
                    <mxGeometry width="50" height="50" relative="1" as="geometry">
                        <mxPoint x="800" y="280" as="sourcePoint"/>
                        <mxPoint x="680" y="220" as="targetPoint"/>
                    </mxGeometry>
                </mxCell>
                <mxCell id="38" value="" style="endArrow=classic;html=1;fontSize=18;entryX=0;entryY=0.5;entryDx=0;entryDy=0;" edge="1" parent="1" target="24">
                    <mxGeometry width="50" height="50" relative="1" as="geometry">
                        <mxPoint x="740" y="770" as="sourcePoint"/>
                        <mxPoint x="940" y="670" as="targetPoint"/>
                    </mxGeometry>
                </mxCell>
                <mxCell id="43" value="" style="shape=image;verticalLabelPosition=bottom;labelBackgroundColor=#ffffff;verticalAlign=top;aspect=fixed;imageAspect=0;image=https://caddyserver.com/resources/images/v2-landing.png;" vertex="1" parent="1">
                    <mxGeometry x="164.62" y="513.6" width="45.38" height="32.81" as="geometry"/>
                </mxCell>
                <mxCell id="44" value="Caddy" style="text;html=1;strokeColor=none;fillColor=none;align=center;verticalAlign=middle;whiteSpace=wrap;rounded=0;fontSize=18;" vertex="1" parent="1">
                    <mxGeometry x="210" y="515" width="60" height="30" as="geometry"/>
                </mxCell>
                <mxCell id="45" value="" style="shape=image;verticalLabelPosition=bottom;labelBackgroundColor=#ffffff;verticalAlign=top;aspect=fixed;imageAspect=0;image=https://caddyserver.com/resources/images/v2-landing.png;" vertex="1" parent="1">
                    <mxGeometry x="990" y="267.17999999999995" width="35.45" height="25.63" as="geometry"/>
                </mxCell>
                <mxCell id="46" value="Caddy" style="text;html=1;strokeColor=none;fillColor=none;align=center;verticalAlign=middle;whiteSpace=wrap;rounded=0;fontSize=18;" vertex="1" parent="1">
                    <mxGeometry x="1030" y="265" width="60" height="30" as="geometry"/>
                </mxCell>
                <mxCell id="47" value="" style="shape=image;verticalLabelPosition=bottom;labelBackgroundColor=#ffffff;verticalAlign=top;aspect=fixed;imageAspect=0;image=https://raw.githubusercontent.com/hijiki51/traQ_S-UI/master/public/img/icons/android-chrome-512x512.png;" vertex="1" parent="1">
                    <mxGeometry x="1200" y="262.5" width="32.5" height="32.5" as="geometry"/>
                </mxCell>
                <mxCell id="49" value="" style="shape=image;verticalLabelPosition=bottom;labelBackgroundColor=#ffffff;verticalAlign=top;aspect=fixed;imageAspect=0;image=https://cncf-branding.netlify.app/img/projects/prometheus/icon/color/prometheus-icon-color.png;" vertex="1" parent="1">
                    <mxGeometry x="360" y="466.25" width="42.5" height="42.5" as="geometry"/>
                </mxCell>
                <mxCell id="50" value="" style="shape=image;verticalLabelPosition=bottom;labelBackgroundColor=#ffffff;verticalAlign=top;aspect=fixed;imageAspect=0;image=https://cdn.worldvectorlogo.com/logos/grafana.svg;" vertex="1" parent="1">
                    <mxGeometry x="362.61" y="604.29" width="37.27" height="41.41" as="geometry"/>
                </mxCell>
                <mxCell id="55" value="" style="shape=image;verticalLabelPosition=bottom;labelBackgroundColor=#ffffff;verticalAlign=top;aspect=fixed;imageAspect=0;image=data:image/png,iVBORw0KGgoAAAANSUhEUgAAAMkAAACsCAYAAADR/4jsAAAACXBIWXMAABYlAAAWJQFJUiTwAAAWZElEQVR4Ae1dS2xc13n+SQ6f4ogSYymWFEMyRUfeRHHTFKi6SJwARYIUsOWirgKUdonEG7uLKpu4ixgV6nRRdKMummySQGpYIO6ioQqkSDeNGaAwigaJ7KCJZVGqGFmPSAlFis95svjunENfDu/M3Nc5//nv3A8YUBKp4Z3HN//3nf/Vs7W1RTn4ce3UyWNE9DQR6a8aTxHRDSJaUn+/rG/H33rncv7SmUdOEiZcO3VyHxGdVoTA7WiMK1kmolkiehNfj7/1zlKI/5MjInKSWISPGLg9a+A3XyKiC8ffemfW2SdBIHKSGIYFYgRBR5jzuSRLjpwkhnDt1ElIqGlFjjHGS3kb0UVFmFyOxUBOkhShzPe0usXxGKZxUXmXXI5FQE6ShPDJKRDj00Iue8EXXW44cD1OIydJTFw7dRJHs2cdkFNJMafIckHwYzCKnCQRoOTUaUUOF+VUEiz7oktu9n3ISRIC106d1HLK1ukUN2D2z+e5lwZykrSAihpnFTkSyane0SL1FotUvXPb5CWbQNcfJVNOkp3wmXCQ4+Np3vfR7/+QSu9doZUfXKK1H/9nmndtCwsqunTdUXJOEksmvPhHz9LBr73u/bm+uuqRZemN76YWXfZ86rO059Of9b4uPPc5qq+upHK/LXBRkeVNk7/EFXQtSVTUmLZpwhFNCo8e3vFvGz/7iUcY3KIAEk6TYvgTv0e9o6Pe/17593+je69/zcbDIV90mc3yUXLXkYTThOPNfPgfvx34PUQXyLDl781Q6eq7gT/jJ8aeT30m8Gfef/FPW/5/w8hs3VhXkMSlTPjhb3yHhn/nk21/pnz1Ci29MUNrcw3v0okY/v9388XnU73eGMhcojLTJLl26uS0a5nwdtGkGYguWkaFwb2vvxZZthnGJSXFRCcqM0cSZcKn0zi6NYWDr32dil94JtV7B6H+7w//wKWH6YdOVJ6XGF0yQRKTR7cmUDh0mI7+6w9TveflN/6ZfnP+71x5iO0grgxGNEkcKkcPhTDGOy4W/vjz0pKVYhKV4kjCcXSbFDqHkbbE0qjevU33Xn+NNn76P5YfWWpwugxGDEmk1U8NPvGkl0DELYr5TgKQBcb94Q8uSSyBIVeji9MkEdDEtAPwGnsVMZqThrahk5Q4RjacfTcFZ8pgnCSJi0e3raB9xr4zUzTwxAnnrk8nKUEYwXKMtQzGGZKkWXVrC1pOkZJXtmRVXGRAjrGUwbCSRNrRbVggYUgqygx+tBFdCoeOeHKMHCAUyLI29yMpR8atYK0MhoUkGWp9TQw/oca+ONWxZKUdIK103Vb5vStUX31IlTu3t6OGYLnVDsbLYKyRxHd0O52lqJEmQJSj3/+PjlEGNVrwGRs//Yn399J770o152nDSKLSOEl8Cb8/N/qLMgJ/30kruFajtVyp0WK5Sr9a3aR6vU4nxkbo8Mgg6yWl2a9vhCQZH5hgHO0qheEnFp77PPs1lutbHjFww5+B5VKFfvlg1ftzsb+PPrZ/1CPMYF8v56UmTlSmShKXEn6eOS4WQ/1s5c4tp057cO0f+ad/Cfzeg29/kxa/9U3r16Showa+7vqejyR+gCgORBeKe5ScmCScCT+cFuENhROkAUWKNIxv1TO7tzzNz6X3Hzn7Ko2d+bNd/85RoxUUNYLQiiQaDkWXSGY/Nkk4En4wtjgNQvJu+BOftJbVhlEGYRpm2c4JUZCJt9yaux0xgqJGEDqRxA8Q5djoMD1eHDJy7REwpwjTUo5FIglXwg/EgKFFoSB3wk7nGNIc4tAKzSb+9l982ThJESnulyq0WK5RLeIHaBSSaCC6NOTYHu/PjGjZ89KRJJwJP5Bj/0svJ5JQJoFP9sVvfcMoWbSJN23YtZxardZj30cckvhxbHTII4sD0QXe5ayOLC1JoqLGOY6EH6QGuvfS7rkwBZNmWpt4E8e+SaJGEJKSRMOR6ILIMo2M/i6SqLzGOa7iQrwp8Onpeh1UM+Bbbr3yJSMmf/yll2npezOp3XcaUSMIaZHEDweiy2e2SaJk1XnOpF/YjLOrQHn67Ve+5OTVbdTqdL/UMOJpRI0gmCCJxkBvrxddTo6P2o4ucwX6oJZqljvx98hXXhVLEADeAWbblWw4yABSgBwgiWSU63X6+YNV74Z8i869mMZmrf67+rCanSCk2lylw4XHAEL8ar1Mv3i46X2VTpBmDPT2eJHFBlYq9eWCkllOlI5IjiIaYbP8JgGvsVo1J6s4oBORjxeHrcmttWqdFtZKNwq31stjR0YGnHgicMzJ3faaFC6UtxwYLHg3EAUnVzDpUsFV0gKC/GJpg6pbW9XCb0vVtUeH+6mvp4f9aYSW3//ll9mvIwlcqs4dLfR5tyPD/R5ZcNzbrqzEFXCXr9zZqNCN1dL23wtr1Xp1fqVEJ/ayJ3C8XAM0vYu94mGAAXEuNjbhA1BCdOEuhET0ADkeNpXheKdbi6Uq/e/SBj05NsQeUZBrkJRI1OCuzg0Lf3Rx4eTrQ4P93rEu8iFcRY+l2hbdXC/T/c1K4Pd7vnv8cRj3B/hLoaeHjhcHaXywYPs6d2HszBSNv/SKiOEKwgfDpZZDCZsnwckUkoOQVI8M9cf+fUmBxwppdWe9Au/R6t7mdpBEY29/H00WwWzeqILk4r4vTtHYmRecIwvIgcjh2BT3REiaV+lEEheiBvkix4NStR05NIJJonFgqJ8eGxlwgiymZuhGgZ5hhYFvQvcehkac6BJEEleiBoWQVS3QniQaIMvBoYIXYbihCYMK4cEnThg3+Sg1weQRyKmsEyMIOrqEqfXyk8RmVrwTYMRvrpV3GfKQCEcSDZDk4FA/HRji9yx+gDAgS1+xSENqRE//ocOhcy4oTqytrlB9ZYXKV9/1xvCAGExr1ZxFp6rh1XIVZeUc9VWBuL9Z9SJHKdnBRDSSaEBPHhpuRBcX8is5Pujp9zo2Dx3x2o9Nnrb5K4lHC700PlDwbtzQZvzeZjUpOTTmYj0q/HKcJ7+/Vqb9gwUnfEs3oDER8kmvtx+RElGzb7S4S3LCO5muRnaFFBox/UYoJHqUOBnAReEGKYbo4sLxsXQgKnhDLj56Yns8apTRqOiW7BapmNBvhEJq72hcJG65FAsHHRX8XiqKj2oFHDQsvzHD+thMA5JqsVRLw2+EQuof+1qK4YZTMRBmT4F1fAwrgqKCqZ59yCyb01RsA5LqzkbZM+Qh8hupwag28ksxF0/F0oKpqBAVpodScAEKBWYc5VMcsPKu1VLsxmoPHRrppwOD/SKNvs2oEBVZlFmIGIgcayn34keF1Y92hEiYLNxg8CHFXEhQtgPacTGIweU+F8isu1/9SweuJDkgqZCL6VBPZRVs+gehEzcYfRwhjw/2OWn09Ro17EJ0sYYMgA+RvnoBSgO5DRNHuEkRK5loAqhA3q+ii8tGX6+Ac0Vmrf34R3T3VblRxBVJ1QYXnSGJHxKMPvwISvk5R69CZi089zlxUcRFSdUCGFB3zEmSaCC6uG70dcElh2+5++pZUUWXLkuqAIAgT0/NX78MkqBvd8O5S2yCBKOvB3sXv/CM8d9le8J8EgiQVM3ApPnTU/PXP5gFPDM5gbGmf+3UZbaAhIw+pNhe5V1MRBc0fN184XmnZVbIrj/XgOhxbmr++nn/dW2POZVEFBJk9OFZkm7VbYaNFQxxgWgBcgiRVH54k+R19PBjx8DsmcmJp9WOBlF7DqUY/X1nXvCiSxKjj4ksLu5fh6S6t1kxWmhoCBdV9Gi58WrXVPmZyYl9ahfJWWk71hFdQJRDw+6W7mujv+/MVOSuStdkloHeDWvA++QjIwMrQ3293+m0pbflfpKZyQm9n0TkaulxNWfK5dL9qEbfFZklVVLBwyJp3eh/2iXR31ZbrnbtgO+46QpkGezr/dtKvf4n9S1yYx5qBEgw+oguIAsmw7Qy+i7M9ZIqqfC64z2AdEKh83sAS0fP+cnSbtPVjjVwjQarxlEekkESIaF0H0a/sR/yg6kw6MG/+eLzLNcDSXXPe90r4iQVJDeixoF4U1reVpuuLgdtuuroSRBm8cQJNGkeQBL4FlfrxajJ6KMV13anYcTZVE4hxS5ZL6G4gyTXTp08q3xIKMPe0KaNJhiJkGD0bcNGO6wp4LVs4TeS4JJHEhU9ZuPuScQnDZJGqMeRKsW6vUc/pfE71hHRb0TGZq2+qt8RbyZZP42Le2zPgHeTKsW6sUdfUKHhLjQkc39cvxEa69X6Ws/873/MSIGjlmJo2Je6cSmrPfomx++YBiQVEsc2avjwvv35g43/Lvx6o7Lnw8PpsxFvLAzdro7KPRXTPfra6Evv0ZfqNxDRDw41SpBsDdoGQbCOZKNW3yw8rNSqJkiiUdCaEduWSlVvCDNXQ39cICrOr2yK7dGX6jf0ES5q9Ez4jVbAh8iV5c1tCVr4Tala6lkp0WTR/HahcZUBx4ulyxkkSTFJPfqS8xtcz21Nvb54zvzw9IPWpjaIQioLfmx00Lvhd+OiBPUaeHC1R19oiTqLpPIDzxnG9gY9Z9siG2/W9WqNTuwdtiolDgw1Tiik5lzwKQ0pVmCWYlLJwSWpNMJI0cD2XRzlHmLayJuXv0SDVHJwy9UIPi14qryny9Yr3iejbbJkwej7J1fiA8fEG4Fr5GcSdKjCNY64pf0tzzS1SeUiC2XA6OOUBMeIaSYoJX5wQFLpI3QOSZU0aRp6Wopul+XeRSLV6GuA9IgsuIWRY3iBH6p1bA/LNVGSirvUJ6W+l/BLfPy7SDj1ZLPRl5bRX2yKAvo5BGEKvT1UrW9tfwBILDLkllSknmOQI63nLxbFXTj+zEJGn3xEkNp2oMEtqUzuLEkUB/3Hn1wl536jzz2ivxvBLalsHGCk8siq+hhyg1eKaa0P8upss9TiSpfhgqSyOQ0ydfr7pRhXybknA4WX7rsIqAQkS031boQBxzRIYzHSlQ292ujjeqBXJZfuc6Ex16xgvHejFbhHFxkXks0bermGyCG6aKOPvu2GwcvJ0g7aZ3L107gyusjqu1V3/91c7218MjHUOTX62hvRpaFrK2J79E1At8Pi9eHyG66NLmI5kvCkjyo5x5sVLwin0X9spGH0JffoJ0XC8TuJ4fI0SPZWOy3FOHMu3Wz0uQsNBUyDXHJuiY8r5S9ZNvouHOEKmQbpzd1yrmk7N/rmYHr8TicIG7C9rFYxXMa7z1nX6qLRl5jR5/YbAqdBLqhNV96keb3p6oKU6fGcRl9DSuk+d8lI2oWGlvAPal/J9jIf/6YrMUQhbbYd6C13sXTfZLNXJwgeQDGnyPFm8zeaN11FmgXsAlxZC+eCFOMkh9QB24XentWRvt6/f+aXV/+m1c8Ebbo6plbCxZoLzAkX1sJxSDFOcgiVVEE+bUEFiNnjb72zY29iu01XT6v/JI4sLux/10PETVYi2xz56YfkmV4hfNqy2nh1Tv9DpyU+00vl2l/dWi9/WGpyzYUhcmn6Fl2Jy1E2InlnSYz3QcclPmDRtN+bSN9F4sK0eN3n8qBcjUQYeC28uJAGHL5L6tF3CknTwCU+5zpt3c1CQ5ML0+LxSbxerdNyuRGh8VyCOLgmTeKxgT4aQe97xtphTSPlvpcdS3wi7yiRPrkkK9Pi00S+s2QnSrWtRU2Sy0mW+EgvOc/Xwtlth00bJn3nYqn661SX+GRBiknY/54mJK+dNj1gG+/hny2u/1fh1np57MhIOuvZm0vOpU+Lz+pauCysnTY9YBuy88rDDarUt6qF9Wp908QvycK0eH+PfhbWwkmcH6xhsw4NH5LXVkr2lvjoIXLHRmVu6HWldD8JpO5ItN33ggg7v1LaddRtbYmPf0Ov1FIGF0r3o0DqjkSOaZDvr5dbnujtWuJzvDhkXFZInxbvSo9+K0glB0dpf+wlPrhQfOLbMqxg7wMVXaTmXFyQYiAF5II0M47nzGYrccREafBU+UZjftXaXpIsjPlplmI297lIjBwc0yDjbgXrOAhCV9TaXuKjq2iljvmxkaCUuHqaYxpkwsLMuUjTUvDAOKaYSDX6Gmn6FqnHuBzTIFOqIgi/xIeadgHaNFjSjb5/ttj4QN/2tquwgE/DC477kOTZuAZsp11FEOtdrvW37ay09P3vDZLXt5fp65Vw2HDVDL3xSmL05JBUJqsIEi/x4ZocLz2jT74Pm6yAQ1LZaARLbYkPlxTzZ/Sl73+XCC5JZbMRLPV3MpcUy8L+d0ngklQcjWDGl/jgZrsT0G/087Vw6YJj+AR3I5gVTaSlmO1OwHwtXDrg2lniSiOY1RoKmGxs672xan/kj/T97xww0Q4bBhx7EduBpdAIIVMXCNoe+ZOV/e8mwTGGyeXeevbGCK5OwHz/+05w7SwR0Fvv7hIfjk7AbjT6HL0b5KCkagHM3XrK6SU+udE3B65CQ0HjirzBdFPz1284vcTHb/Rtj/zJqtHnOMIVsBexGd6IU7FLfLhG/jQinEyjz+U3hI4rytYSH66RP1JK9zl2JArbi+jHnN6R2PwN8Ut8iHG2r6sbejnMuEBJpbGgpNWuDVcarZb4nCeiZ+1dZzrQRt/2ijhXpBjHAlGpEyBV5LgwNX/9QqcfzOwSH67ZvhxSzDY5BEsqarcbsRVakkRDkeWsxMhCjBtobfS52CaH1CF3ChehkII8Ryd0JImGkmHnJJl7P2D0bU8xIUM7FG2f8AmeMbCs9n+CHDfi3klokmjMTE7sU5EFm7COxv3FnOAaKIdP4MVyLVb5C67VI4clMy55qLYy4+eV51gK8fNtEZkkfsxMTkwrsojzLcRo9EnVLGHLValeDzT7kFKDvb3etivbhYZSh2pHMeNRkIgkGjOTE0+p6CJSiuVLfOTuRVSI7TfCIBWSaGRBinEZfS4IKTQMwrJPUsX2G2GQKkn8kC7FuIy+DQg/wl1QR7ipSqp2MEYSDd+p2GlpmXwNFyfHx4HkPezYgqskVej8RlowThINJcWmlRwTKcWkbusVvDQ0lSPcpLBGEj+kJyilGH2pe0q0pCKi2TSOcJOChSQaSorp6CJSinH0g3eCxGnzCmySqh1YSeJHFox+o0SET4oJJYcTkqodnCGJhi/nItLoc+xzEUqOVLPiJuEcSTSyYPRN7nPhGvmZAuZU1JiVcsHOksQP6UY/zYJEJP3uq3V5go5xIalmVX7DSUnVDiJIoiHd6OslPrpYMSxwOoVyEXwVlhkXI6naQRRJ/JBu9EnlXUYKfTQUIMc2a1uejBI60kicpGoHsSTRyEJGPyMQLanaQTxJNJTRP60II9LoC0UmJFU7ZIYkfiijPy21dF8IMiWp2iGTJNHwGX2xpfsO4mIWJVU7ZJokfsxMTpxWp2JijT4jFnxZ8UxKqnboGpJoqOiiG8Nyo98eRtphpaHrSKLhM/ogzMfduCpncFGRw6lCQy50LUn8yI2+B2vtsNKQk8SHLPTox4BTvRsuIidJC3SB0e+aI9ykyEnSARnM6Bsdv5NF5CQJCeEZ/dxvJEBOkhgQVLrf1fmNtJCTJAEczrlYn02VZeQkSQEOSbGcHAaQkyRlMC0/yslhEDlJDMHSPpecHBaQk8QwDLUc52UjFpGTxCJUgvJ0zJzLJdX5l2fGLSMnCRNmJicmiQgzxh4loicCruIqEd0lovk88ccIIvp/nCvE7cMNMDoAAAAASUVORK5CYII=;" vertex="1" parent="1">
                    <mxGeometry x="1189.95" y="832.5" width="52.59" height="45" as="geometry"/>
                </mxCell>
            </root>
        </mxGraphModel>
    </diagram>
</mxfile>